<?xml version="1.0" encoding="UTF-8" standalone="no" ?>
<!DOCTYPE svg PUBLIC "-//W3C//DTD SVG 1.1//EN" "http://www.w3.org/Graphics/SVG/1.1/DTD/svg11.dtd">
<svg xmlns="http://www.w3.org/2000/svg" xmlns:xlink="http://www.w3.org/1999/xlink" version="1.1" width="1080" height="1080" viewBox="0 0 1080 1080" xml:space="preserve">
<desc>Created with Fabric.js 5.2.4</desc>
<defs>
</defs>
<g transform="matrix(1 0 0 1 540 540)" id="2f549adc-d79e-4577-ad7f-70661077af02"  >
<rect style="stroke: none; stroke-width: 1; stroke-dasharray: none; stroke-linecap: butt; stroke-dashoffset: 0; stroke-linejoin: miter; stroke-miterlimit: 4; fill: rgb(255,255,255); fill-rule: nonzero; opacity: 1; visibility: hidden;" vector-effect="non-scaling-stroke"  x="-540" y="-540" rx="0" ry="0" width="1080" height="1080" />
</g>
<g transform="matrix(1 0 0 1 540 540)" id="9646e9ca-d768-4dfd-83e3-0f97804bcad8"  >
</g>
<g transform="matrix(1 0 0 1 540 540)"  >
<g style="" vector-effect="non-scaling-stroke"   >
		<g transform="matrix(0.13 0 0 -0.13 -85.53 -187.67)"  >
<path style="stroke: none; stroke-width: 1; stroke-dasharray: none; stroke-linecap: butt; stroke-dashoffset: 0; stroke-linejoin: miter; stroke-miterlimit: 4; fill: rgb(255,255,255); fill-rule: nonzero; opacity: 1;" vector-effect="non-scaling-stroke"  transform=" translate(-1822.03, -3890)" d="M 1030 4587 L 1030 4234 L 1473 3538 C 1716 3154 1918 2841 1921 2840 C 1935 2839 2621 3931 2614 3943 C 2602 3964 2334 4391 2159 4670 L 1992 4935 L 1511 4938 L 1030 4940 L 1030 4587 z" stroke-linecap="round" />
</g>
		<g transform="matrix(0.13 0 0 -0.13 112.87 -185.67)"  >
<path style="stroke: none; stroke-width: 1; stroke-dasharray: none; stroke-linecap: butt; stroke-dashoffset: 0; stroke-linejoin: miter; stroke-miterlimit: 4; fill: rgb(255,255,255); fill-rule: nonzero; opacity: 1;" vector-effect="non-scaling-stroke"  transform=" translate(-3310, -3875)" d="M 3258 4923 C 3249 4913 3162 4777 3062 4620 C 2963 4463 2844 4274 2796 4200 L 2710 4065 L 2710 3437 L 2710 2810 L 3308 2812 L 3905 2815 L 3908 3878 L 3910 4940 L 3592 4940 C 3301 4940 3272 4938 3258 4923 z" stroke-linecap="round" />
</g>
		<g transform="matrix(0.13 0 0 -0.13 -145.86 -113.65)"  >
<path style="stroke: none; stroke-width: 1; stroke-dasharray: none; stroke-linecap: butt; stroke-dashoffset: 0; stroke-linejoin: miter; stroke-miterlimit: 4; fill: rgb(255,255,255); fill-rule: nonzero; opacity: 1;" vector-effect="non-scaling-stroke"  transform=" translate(-1369.59, -3334.87)" d="M 1032 3338 L 1035 2815 L 1365 2812 C 1546 2811 1700 2812 1707 2814 C 1715 2818 1672 2894 1588 3027 C 1515 3141 1368 3375 1259 3545 C 1151 3716 1055 3856 1046 3858 C 1031 3861 1030 3819 1032 3338 z" stroke-linecap="round" />
</g>
		<g transform="matrix(0.13 0 0 -0.13 0 159.33)"  >
<path style="stroke: none; stroke-width: 1; stroke-dasharray: none; stroke-linecap: butt; stroke-dashoffset: 0; stroke-linejoin: miter; stroke-miterlimit: 4; fill: rgb(255,255,255); fill-rule: nonzero; opacity: 1;" vector-effect="non-scaling-stroke"  transform=" translate(-2463.51, -1287.5)" d="M 1016 2542 C 1014 2538 1082 2370 1169 2170 C 1370 1705 1522 1352 1611 1147 C 1710 919 1839 621 1977 300 L 2096 25 L 2473 25 L 2851 25 L 2889 115 C 2910 165 2992 356 3070 540 C 3148 724 3225 905 3241 942 L 3270 1009 L 3220 1131 C 3193 1198 3170 1256 3170 1261 C 3170 1266 3218 1271 3277 1272 L 3385 1275 L 3651 1905 C 3798 2252 3914 2538 3911 2543 C 3907 2547 3672 2549 3389 2548 C 2897 2545 2875 2544 2878 2527 C 2880 2517 2908 2445 2940 2367 C 3104 1969 3284 1531 3296 1498 L 3309 1460 L 3196 1460 L 3083 1460 L 3038 1568 C 3013 1627 2913 1866 2815 2100 C 2717 2334 2633 2531 2628 2538 C 2620 2547 2446 2550 1819 2550 C 1380 2550 1019 2546 1016 2542 z" stroke-linecap="round" />
</g>
</g>
</g>
</svg>